<svg xmlns="http://www.w3.org/2000/svg" xmlns:xlink="http://www.w3.org/1999/xlink" version="1.1" x="0px" y="0px" viewBox="0 0 100 100" enable-background="new 0 0 100 100" xml:space="preserve" width="current" height="current"><g><path fill="current" fill-rule="evenodd" d="M24.55,91.364c-0.469,0-0.929-0.146-1.318-0.431c-0.66-0.479-1.01-1.282-0.906-2.094l3.406-26.861L7.184,42.247   c-0.562-0.598-0.749-1.451-0.495-2.229C6.94,39.24,7.594,38.662,8.4,38.509l26.603-5.063L48.034,9.709   c0.79-1.432,3.141-1.432,3.93,0l13.031,23.737l26.604,5.063c0.807,0.152,1.461,0.73,1.714,1.508   c0.252,0.778,0.063,1.632-0.495,2.229L74.271,61.978l3.402,26.861c0.106,0.812-0.244,1.615-0.906,2.094   c-0.66,0.482-1.534,0.567-2.271,0.215L50,79.607L25.504,91.148C25.202,91.292,24.874,91.364,24.55,91.364"/></g></svg>